<svg xmlns="http://www.w3.org/2000/svg" aria-hidden="true" style="position:absolute;width:0;height:0;overflow:hidden">
  <defs>

    <symbol id="star" viewBox="0 0 88 88">
      <path d="M43.133.505a1 1 0 0 1 1.733 0l6.068 10.534a1 1 0 0 0 1.43.327l10.148-6.923a1 1 0 0 1 1.562.76l.79 12.02a1 1 0 0 0 1.155.923l12.183-1.925a1 1 0 0 1 1.08 1.37l-4.6 11.125a1 1 0 0 0 .644 1.342l11.782 3.423a1 1 0 0 1 .385 1.708l-9.072 8.063a1 1 0 0 0 0 1.495l9.072 8.064a1 1 0 0 1-.385 1.708l-11.782 3.423a1 1 0 0 0-.645 1.342l4.602 11.125a1 1 0 0 1-1.08 1.37l-12.184-1.925a1 1 0 0 0-1.154.922l-.791 12.02a1 1 0 0 1-1.562.761l-10.148-6.922a1 1 0 0 0-1.43.326l-6.067 10.535a1 1 0 0 1-1.733 0l-6.068-10.534a1 1 0 0 0-1.43-.328l-10.148 6.923a1 1 0 0 1-1.562-.76l-.79-12.02a1 1 0 0 0-1.155-.923L9.798 71.78a1 1 0 0 1-1.08-1.37l4.6-11.125a1 1 0 0 0-.644-1.342L.892 54.519a1 1 0 0 1-.386-1.708l9.073-8.063a1 1 0 0 0 0-1.495L.506 35.188a1 1 0 0 1 .386-1.708l11.782-3.423a1 1 0 0 0 .645-1.342L8.718 17.59a1 1 0 0 1 1.08-1.37l12.183 1.925a1 1 0 0 0 1.154-.922l.791-12.02a1 1 0 0 1 1.562-.761l10.148 6.923a1 1 0 0 0 1.43-.327L43.133.505Z"/>
    </symbol>

     <symbol id="arrow" viewBox="0 0 27 10">
      <path d="M20.2254 10C20.6012 9.08832 20.9644 8.2906 21.315 7.60684C21.6908 6.92308 22.054 6.35328 22.4046 5.89744L0.5 5.89744L0.5 4.10256L22.4046 4.10256C22.054 3.61823 21.6908 3.03419 21.315 2.35043C20.9644 1.66667 20.6012 0.883191 20.2254 0L21.5405 0C23.1185 2.07977 24.7717 3.61823 26.5 4.61538V5.38462C24.7717 6.35328 23.1185 7.89174 21.5405 10H20.2254Z"/>
    </symbol>
    
  </defs>
</svg>
